<svg xmlns="http://www.w3.org/2000/svg" width="99" height="127" viewBox="0 0 99 127" fill="none">
  <path d="M47.5628 36.7432C51.5317 41.1917 55.2501 45.7725 58.7519 50.4704C66.7913 61.2594 73.5029 72.5308 78.2034 84.528C81.3784 92.6295 83.6386 100.872 84.3291 109.328C84.6438 113.168 84.6515 117.004 84.0116 120.809C83.8908 121.52 83.7186 122.224 83.1708 122.807C82.9991 122.989 82.7818 123.236 82.4578 123.123C82.0375 122.975 82.3361 122.703 82.4049 122.503C82.9619 120.879 82.6662 119.214 82.5779 117.565C81.589 99.0718 75.0339 81.7182 64.7277 65.1501C56.4961 51.9168 46.3803 39.6734 34.69 28.2675C34.5513 28.1324 34.3923 28.0135 34.2448 27.8865C34.1797 27.8357 34.1262 27.7373 34.0169 27.8112C33.9133 27.8811 34.0046 27.9491 34.0549 28.0142C35.1661 30.256 36.2996 32.4927 37.3883 34.7417C41.6809 43.6101 45.0943 52.6618 46.7461 62.0823C47.7678 67.9027 48.0452 73.7 46.816 79.4742C46.7879 79.6022 46.7761 79.7335 46.7507 79.8616C46.6921 80.1526 46.5998 80.4545 46.142 80.4139C45.7278 80.3763 45.7042 80.084 45.682 79.8116C45.4403 76.8948 45.1876 73.9794 44.5578 71.084C42.9962 63.9181 40.3405 56.9867 37.2814 50.1396C32.6089 39.6726 27.3948 29.3859 21.339 19.3711C20.7071 18.3231 20.0977 17.2657 19.6342 16.1611C19.3803 15.5533 19.2011 14.9353 19.2484 14.2934C19.394 12.2755 21.6604 11.1117 23.9945 11.8551C25.0221 12.1819 25.8309 12.7754 26.6518 13.3543C32.5096 17.4936 38.1862 21.7942 43.8478 26.1137C51.9417 32.2888 60.1173 38.3925 67.8178 44.9014C71.7911 48.2602 75.5797 51.7515 78.9165 55.5484C79.4223 56.123 79.8996 56.7132 80.1846 57.387C80.6247 58.4327 80.3267 59.447 79.4094 60.0593C78.4894 60.6714 77.2117 60.7082 76.0309 60.1395C75.1366 59.7096 74.4078 59.1085 73.6696 58.5244C67.4111 53.5601 61.5644 48.2744 55.4743 43.1765C53.1132 41.2024 50.7493 39.2304 48.3794 37.2645C48.141 37.0652 47.9514 36.7944 47.5619 36.7563C47.5139 36.698 47.4657 36.6418 47.4175 36.5856C47.3175 36.5632 47.2716 36.5138 47.2994 36.4298L47.2844 36.409L47.3051 36.4258C47.4222 36.4384 47.4537 36.4978 47.4313 36.5843C47.5451 36.6032 47.5709 36.6667 47.5678 36.7501L47.5628 36.7432Z" fill="#FEB800"/>
</svg>