<svg xmlns="http://www.w3.org/2000/svg" width="210" height="119" viewBox="0 0 210 119" fill="none">
  <path d="M45.4847 90.3808V90.1311C45.4847 89.9679 45.4847 89.8046 45.2741 89.8046C44.9581 89.8046 44.5369 89.9679 43.9146 90.5441C40.3532 93.4828 37.3087 94.9618 35.8344 94.9618C35.5184 94.9618 35.3078 94.9618 35.0972 94.7986C34.8866 94.7121 34.7813 94.472 34.7813 94.2223C34.7813 92.8298 36.6673 89.8046 38.9745 87.4325C40.65 85.6366 41.5978 84.4937 41.5978 83.9175C41.5978 83.6678 41.2818 83.5045 40.8606 83.5045C40.65 83.5045 40.334 83.591 40.0181 83.6678C38.3427 83.9943 32.0527 92.4168 32.0527 94.2127V94.2992C32.0527 94.789 32.7899 95.6053 33.6228 96.1815C34.5706 96.7577 35.0876 97.0842 35.8248 97.0842C36.6577 97.0842 37.6055 96.7577 39.1852 96.1047C42.1243 94.7986 45.2645 91.7734 45.4751 90.3808H45.4847Z" fill="white"/>
  <path d="M42.2392 82.6978C42.8615 82.6978 43.5986 82.2849 44.2305 81.4686C44.5464 81.0556 44.7571 80.7291 44.7571 80.489C44.7571 80.1625 44.3358 79.9992 43.5029 79.9128C43.2923 79.9128 43.0817 79.8263 42.871 79.8263C41.9232 79.9128 41.5116 80.2393 41.4062 81.2189V81.6318C41.4062 82.3713 41.7222 82.6978 42.2487 82.6978H42.2392Z" fill="white"/>
  <path d="M70.1371 87.0579C69.9265 87.0579 69.6105 87.0579 69.1893 87.154C67.9351 87.3557 65.7332 88.4505 64.68 88.4505C64.3641 88.4505 64.2588 88.3545 64.1535 88.1528C64.1535 87.9511 64.0482 87.5573 64.0482 87.154C64.0482 86.4529 64.1535 85.7614 64.2588 85.0604C64.3641 84.561 64.4694 84.0616 64.4694 83.5622C64.4694 82.064 63.8376 81.2669 63.0046 81.2669H62.794C62.0568 81.2669 61.1186 81.8623 60.2761 83.0628C59.4432 84.2633 58.8113 84.753 58.1795 84.753C57.8635 84.753 57.6529 84.657 57.2412 84.3497C56.82 83.9559 56.1881 83.7543 55.4605 83.7543C51.8991 83.7543 46.1261 87.8358 46.1261 91.0243V91.226C46.3368 92.9162 47.2846 93.7133 48.8546 93.7133C50.846 93.7133 53.5745 92.4168 56.7147 89.8238C58.706 88.3256 60.391 87.2308 61.0133 87.2308H61.1186C61.3292 87.3269 61.3292 87.5285 61.3292 87.7302C61.3292 88.5273 59.8645 89.7278 57.1359 91.1203C47.8015 95.6053 40.7744 104.671 40.7744 110.453C40.7744 112.249 41.3967 113.641 42.7658 114.534C44.0199 115.331 44.5465 115.725 45.1783 115.725C45.7049 115.725 46.4421 115.331 47.9069 114.63C51.9948 112.537 59.2326 102.376 61.8558 95.7013C62.1717 94.7025 62.8036 93.1083 63.4259 92.4168C64.996 90.6209 69.3999 89.0267 70.453 88.633C70.8743 88.4313 71.1902 88.0375 71.1902 87.6342C71.1902 87.3365 70.8743 87.0387 70.1371 87.0387V87.0579ZM53.0479 89.1516C51.4779 90.4481 50.2141 91.1491 49.5918 91.1491C49.4865 91.1491 49.3812 91.0531 49.3812 90.9475C49.3812 90.6497 49.6971 89.9487 50.6354 89.0555C51.7938 87.9607 53.3639 86.9619 54.1968 86.9619C54.5127 86.9619 54.7234 87.0579 54.7234 87.2596C54.7234 87.5573 54.1968 88.1528 53.0479 89.1516ZM47.2846 111.672C45.8198 112.565 44.872 113.171 44.2401 113.171C43.6082 113.171 43.2923 112.777 42.9859 112.076C42.8806 111.778 42.7753 111.375 42.7753 110.981C42.7753 108.59 44.872 104.604 47.9164 101.214C51.4779 97.43 57.4614 93.1467 59.0315 93.0411C59.1368 93.0411 59.2422 93.1371 59.3475 93.1371C59.4528 93.2332 59.5581 93.4348 59.5581 93.7325C59.5581 96.825 51.2768 109.271 47.2846 111.663V111.672Z" fill="white"/>
  <path d="M93.3151 88.0375C93.1045 88.0375 92.7886 88.0375 92.3673 88.2488C90.9025 88.9883 87.2262 91.8214 85.1296 92.6665C84.8136 92.7722 84.603 92.8778 84.3924 92.8778C83.6552 92.8778 83.5499 92.0423 83.5499 89.3052C83.5499 86.0399 83.1287 84.9931 81.3479 83.8311L81.1373 83.7254C80.0938 83.7254 76.8387 87.8262 76.7334 87.8262V87.7206C77.7769 85.723 78.1982 84.561 78.1982 83.8311C78.1982 83.1012 77.8823 82.8803 77.461 82.8803C76.9345 82.986 76.3026 83.3029 75.9962 83.6198C72.7411 87.4037 71.2764 91.8214 71.2764 93.5117C71.2764 93.7229 71.2764 93.9342 71.3817 94.0399C71.6976 94.4624 72.0136 94.7793 72.3295 94.7793C73.172 94.7793 74.3208 93.7325 76.944 91.1011L80.831 87.3172V90.1599C80.831 93.2139 82.4011 95.0002 84.7083 95.0002C85.1296 95.0002 85.6561 94.8946 86.1731 94.7889C87.7432 94.3664 88.5857 93.4252 90.9983 91.735C93.0949 90.2656 93.9374 89.1035 93.9374 88.4697C93.9374 88.1528 93.7268 88.0471 93.3151 88.0471V88.0375Z" fill="white"/>
  <path d="M117.757 87.8262C117.441 87.8262 117.02 88.0375 116.292 88.5657C115.459 89.0939 113.458 90.2464 112.309 90.8802C110.95 91.7254 109.686 92.3496 108.853 92.3496C108.432 92.3496 108.116 92.0327 108.116 91.3988C108.116 90.6593 108.537 89.4013 109.37 87.4037C110.107 86.0399 110.423 85.3005 110.423 84.6666C110.423 84.244 110.213 83.9271 109.791 83.6198C109.37 83.1972 109.054 82.986 108.633 82.986C108.212 82.986 107.685 83.1972 106.958 83.5142C106.326 83.8311 105.799 83.9367 105.388 83.9367C104.976 83.9367 104.65 83.8311 104.334 83.5142C103.808 83.0916 103.387 82.7747 102.87 82.7747H101.922C101.185 82.7747 100.036 83.0916 98.3604 84.7722C96.1585 86.7698 94.5884 89.19 94.5884 91.5045C94.5884 92.4552 94.799 93.3964 95.3256 94.2415C95.9478 94.7697 96.3691 94.981 96.8956 94.981C97.8434 94.981 98.9923 94.1359 101.089 92.0327C102.343 90.8706 103.712 89.8238 105.282 88.3544C105.598 88.0375 105.809 87.9319 105.809 87.9319C105.809 88.1432 105.493 88.777 105.187 90.1407C105.187 90.4577 105.081 90.7746 105.081 91.0915C105.081 93.0891 106.546 94.981 108.547 95.0867H108.652C110.433 95.0867 117.671 90.5633 118.197 88.9883C118.303 88.777 118.303 88.6714 118.303 88.4601C118.303 88.1432 118.197 87.8262 117.776 87.8262H117.757ZM103.08 86.3569C101.922 87.9319 101.089 88.8827 98.887 90.4577C98.5711 90.7746 98.2647 90.9859 98.0541 90.9859C97.8434 90.9859 97.7381 90.7746 97.7381 90.4577C97.7381 89.7182 100.361 86.9907 101.826 86.1456C102.353 85.8287 102.659 85.723 102.87 85.723C103.08 85.723 103.186 85.8287 103.186 86.0399C103.186 86.1456 103.186 86.2512 103.08 86.3569Z" fill="white"/>
  <path d="M125.31 85.2236C127.79 82.4481 130.432 80.1817 132.137 79.7687C133.266 79.519 138.302 79.3077 139.001 79.1541C139.7 79.0004 139.958 78.8852 139.968 78.7507C139.987 78.5394 138.886 78.3858 137.364 78.2513L134.913 78.0496C134.061 77.9824 133.391 77.8576 133.41 77.7135C133.486 76.8107 138.503 73.8144 139.69 73.9104C140.791 74.0065 141.5 73.7087 141.538 73.2286C141.557 72.95 141.337 72.5851 140.858 72.1913C140.533 71.9609 140.121 71.7784 139.7 71.7496C138.436 71.6439 136.55 72.7388 132.74 75.5623C130.385 77.3197 127.694 78.9044 126.747 79.0388C123.118 79.6439 121.558 79.9992 121.491 80.8347C121.443 81.3917 121.759 81.6894 122.266 81.7375C122.773 81.7759 123.645 81.5742 124.794 81.046C125.234 80.8731 125.492 80.8251 125.665 80.8443C125.837 80.8539 125.914 80.9308 125.894 81.142C125.847 81.6991 124.928 82.9571 123.262 84.8875H123.195C123.07 85.0412 122.965 85.1948 122.85 85.3581C122.773 85.4445 122.706 85.5309 122.62 85.6174C122.496 85.7614 122.4 85.9247 122.314 86.1072C120.648 88.5561 119.719 90.7938 119.566 92.6665C119.423 94.3952 119.987 95.8358 121.28 96.7097C122.247 97.3532 122.898 97.6797 123.75 97.7565C124.363 97.8045 125.129 97.6893 126.172 97.382C129.427 94.6737 125.808 95.4132 125.808 95.4132C125.014 95.6341 124.324 95.7205 123.76 95.6725C122.41 95.5573 121.634 94.6545 121.519 92.8394L121.538 92.5609C121.682 90.8418 123.252 88.0279 125.32 85.2428L125.31 85.2236Z" fill="white"/>
  <path d="M152.031 87.9319C151.61 87.9319 151.188 88.0375 150.777 88.3545C147.627 90.4577 145.846 91.3028 145.013 91.3028C144.592 91.3028 144.381 91.0915 144.381 90.669C144.381 90.352 144.487 89.9295 144.592 89.5069C144.803 88.5657 146.057 85.4061 146.373 84.3497C146.478 84.0328 146.583 83.8215 146.583 83.5046C146.583 82.6594 146.057 82.2369 145.425 82.1312C144.898 82.1312 144.381 82.4482 144.065 82.9764C143.012 85.2909 137.555 93.0795 135.985 93.0795C135.775 93.0795 135.669 92.8682 135.564 92.5513V92.34C135.564 91.2836 136.406 89.1804 136.933 88.2392C138.302 85.1852 138.924 83.7158 138.924 82.9764C138.924 82.4482 138.503 82.3425 137.977 82.3425C135.88 82.3425 132.424 89.1804 132.424 92.8586C132.424 93.5981 132.529 94.1263 132.74 94.5393C133.266 95.3844 134.003 95.807 134.836 95.807C137.038 95.807 139.977 93.2812 141.864 89.7086C141.653 90.4481 141.548 91.0819 141.548 91.7062C141.548 92.6569 141.864 93.4925 142.495 93.8094C143.233 94.2319 143.864 94.4432 144.381 94.4432C145.846 94.4432 147.321 93.0699 151.619 90.2368C152.567 89.6029 152.873 89.0747 152.873 88.6618C152.873 88.2488 152.557 87.9223 152.04 87.9223L152.031 87.9319Z" fill="white"/>
  <path d="M173.457 84.8491C173.457 84.6378 173.352 84.4265 173.141 84.1096C173.036 84.0039 172.93 84.0039 172.72 84.0039C172.088 84.0039 171.044 84.3209 169.886 84.3209C166.114 84.2152 166.219 81.6894 164.017 81.6894C163.701 81.6894 163.28 81.7951 162.859 81.9007C162.753 81.9007 162.753 81.7951 162.753 81.6894C162.753 81.3725 162.964 80.7483 162.964 80.4314V80.2201C162.543 79.6919 162.016 79.3749 161.605 79.3749C161.499 79.2693 161.289 79.2693 161.183 79.2693C160.867 79.2693 160.551 79.5862 160.025 80.2201C157.928 82.9571 152.998 93.0507 152.787 95.3652V95.4708C152.787 96.1047 153.103 96.4216 153.735 96.4216C154.568 96.4216 155.937 95.4708 157.402 92.4264L161.174 85.7998C162.007 84.5322 162.638 84.1192 163.376 84.1192C164.218 84.1192 165.051 84.753 165.999 85.4829C166.841 86.0111 168.306 86.3281 169.771 86.3281C171.13 86.3281 172.394 86.0111 173.332 85.4829C173.332 85.166 173.438 84.9547 173.438 84.8491H173.457Z" fill="white"/>
  <path d="M187.693 87.9319C187.061 87.9319 185.386 88.5657 182.552 90.0351C177.727 92.6665 174.998 93.9246 173.849 93.9246C173.217 93.9246 173.007 93.6077 173.007 93.0795V92.6569C173.217 91.9174 174.165 89.9199 175.314 89.9199H175.63C176.262 90.1311 176.894 90.2368 177.305 90.2368C180.35 90.2368 181.288 87.2884 181.288 85.2909C181.288 84.7627 181.288 84.3401 181.077 84.0232C180.656 83.0724 180.13 82.4482 179.191 82.4482H179.086C178.244 82.4482 176.989 82.9764 175.41 84.3401C172.375 86.9715 170.69 90.1215 170.69 92.5417C170.69 93.1755 170.795 93.7037 171.006 94.2223C171.638 95.3844 172.681 95.903 174.05 95.903C176.568 95.903 180.235 94.0111 185.165 90.6401C187.051 89.3821 188.105 88.4313 188.105 88.1144C188.105 87.9031 187.999 87.9031 187.683 87.9031L187.693 87.9319ZM179.402 84.6666C179.613 84.6666 179.718 84.7723 179.718 84.8779L179.613 85.1948C179.086 87.1924 178.148 87.8262 177.516 87.8262C177.095 87.8262 176.779 87.615 176.779 87.298C177.095 86.4529 178.875 84.6666 179.402 84.6666Z" fill="white"/>
  <path d="M203.203 88.9979C203.107 88.9019 203.011 88.8058 202.829 88.8058C202.446 88.8058 201.881 89.2764 200.263 89.9487C196.75 91.3796 194.385 92.1383 192.863 92.1383C191.724 92.1383 191.054 91.7542 190.584 90.9955C190.584 90.8994 190.489 90.8994 190.489 90.8034C190.489 89.2764 195.802 84.4265 197.506 84.4265C197.602 84.4265 197.698 84.4265 197.793 84.5226C198.272 85.0027 198.933 85.3773 199.316 85.3773C199.699 85.3773 199.88 84.9067 199.88 84.2344C199.88 83.2837 199.498 81.9488 198.741 81.2861C198.358 80.998 197.985 80.8059 197.602 80.8059C196.941 80.9019 195.984 81.3725 194.471 82.5154C190.584 85.4637 187.827 88.6042 187.827 90.3232V90.4193C187.827 91.0819 188.583 92.3208 189.436 93.0795L191.044 94.6065L188.957 96.7001C188.201 97.4588 188.105 97.7469 188.105 98.1311V98.7073C188.105 99.466 188.67 100.138 189.436 100.138C191.14 100.138 196.645 96.1431 196.645 94.8082V94.7121C196.645 93.8574 196.74 94.328 201.862 91.0051C202.906 90.3424 203.566 89.8622 203.566 89.4781C203.566 89.286 203.375 89.19 203.183 88.9979H203.203Z" fill="white"/>
  <path d="M24.0683 88.4985C18.5442 86.741 18.0177 86.3953 18.1517 85.7806L18.2187 85.7038L18.2475 85.6078C18.5442 84.6282 24.5183 81.1324 28.1563 80.3257C28.9509 80.1432 29.554 80.028 29.9944 79.9896C29.9657 80.0088 29.9274 80.0376 29.8987 80.0568C29.0754 80.5274 28.4435 81.459 28.3095 82.0928C28.1658 82.7267 28.5105 83.1012 29.0466 83.2068C29.8221 83.2068 32.6176 80.8059 33.0197 80.2105L33.0772 80.124L33.0963 80.028C33.1059 79.9704 33.1346 79.9224 33.1538 79.8743C33.1921 79.7879 33.2208 79.7015 33.2399 79.6246C33.4506 78.6451 33.0006 77.6175 32.139 77.3389C31.9762 77.3005 31.7751 77.2813 31.5358 77.2813C29.7455 77.2813 25.4948 78.2609 22.9003 79.4806C18.7836 81.4109 16.5816 83.2645 16.1604 85.1468C15.9498 86.1072 16.2082 87.0675 16.9071 87.9223C17.6922 88.9979 18.5634 89.286 22.5652 90.5057C24.6906 91.1395 27.8882 92.0903 28.1563 92.4552C28.051 92.6953 26.9979 93.2716 26.6628 93.4636C22.795 95.5669 15.337 97.1899 11.4884 97.1899C10.8757 97.1899 10.3778 97.1515 10.0045 97.065C9.75555 97.0074 9.61194 96.9498 9.54492 96.9306V96.9018C9.62151 96.5753 9.57364 96.2391 9.42046 95.999C9.30558 95.8166 9.12368 95.6821 8.87476 95.6341L8.7503 95.6149H8.69286C8.24289 95.6149 7.88867 95.9798 7.76421 96.5656C7.64932 97.0842 7.72591 97.6605 7.95568 98.1022C8.10886 98.4576 8.53011 98.9954 10.464 99.418C11.3927 99.6196 12.3596 99.7349 13.2787 99.7349C13.8914 99.7349 14.485 99.6869 15.0307 99.5908C21.4164 98.592 30.0232 95.3076 30.5976 93.0123L30.6359 92.8586C31.0667 90.9282 28.97 90.0447 24.0779 88.4889L24.0683 88.4985Z" fill="white"/>
  <path d="M56.2169 29.6564C54.6851 27.4763 52.6651 25.8629 50.1376 24.8161C47.6101 23.7693 44.9103 23.2411 42.0095 23.2411H33.1825V33.2386H43.9625C44.5178 33.4594 45.0348 33.7283 45.5039 34.0645C46.8729 35.0345 47.5527 36.5134 47.5527 38.5014V41.1616C45.6188 40.5182 43.3977 40.1917 40.8702 40.1917C36.2557 40.1917 32.5123 41.3729 29.6402 43.7451C26.7681 46.1172 25.332 49.3152 25.332 53.3488C25.332 57.8722 26.8638 61.2239 29.9179 63.4039C32.9719 65.584 37.1843 66.6788 42.5552 66.6788C45.2358 66.6788 47.9739 66.4195 50.7695 65.9105C53.5554 65.4015 56.1308 64.71 58.4955 63.8553V37.6179C58.4955 34.4966 57.7296 31.846 56.2073 29.666L56.2169 29.6564ZM47.4857 57.3151C45.5518 57.7473 43.7806 57.9586 42.1722 57.9586C40.4011 57.9586 38.9267 57.584 37.7396 56.8254C36.562 56.0763 35.9685 54.8854 35.9685 53.272C35.9685 51.6585 36.5716 50.4581 37.7779 49.5169C38.9842 48.5757 40.583 48.1052 42.5648 48.1052C44.3838 48.1052 46.0209 48.4317 47.4761 49.0751V57.3151H47.4857Z" fill="white"/>
  <path d="M162.035 68.225C162.035 68.3402 162.064 68.4459 162.122 68.5419L166.554 76.0713C166.87 76.5995 167.77 76.6187 168.115 76.1001L173.112 68.5515C173.179 68.4459 173.218 68.321 173.218 68.2058L162.026 68.225H162.035Z" fill="white"/>
  <path d="M7.71661 68.0617C7.71661 68.177 7.74533 68.2826 7.80277 68.3787L12.2354 75.908C12.5513 76.4362 13.4513 76.4554 13.7959 75.9368L18.7934 68.3883C18.8604 68.2826 18.8987 68.1578 18.8987 68.0425L7.70703 68.0617H7.71661Z" fill="white"/>
  <path d="M63.8089 27.5051C66.0109 26.4295 68.4139 25.594 71.0083 24.9985C73.6028 24.4031 76.1973 24.1054 78.7726 24.1054C84.0286 24.1054 88.3943 25.3539 91.8504 27.8605C95.3065 30.367 97.0393 34.1989 97.0393 39.3658V66.7364H85.9338V39.4426C85.8764 37.7235 85.2253 36.4174 83.9616 35.5243C82.6979 34.6311 81.1852 34.1893 79.4141 34.1893C77.6429 34.1893 76.226 34.5159 74.991 35.1593V66.7268H63.7993V27.5051H63.8089Z" fill="white"/>
  <path d="M162.036 20.4464H173.227V66.746H162.036V20.4464Z" fill="white"/>
  <path d="M178.493 39.2985C178.493 34.4582 180.025 30.684 183.079 27.9949C186.133 25.3059 190.058 23.9613 194.826 23.9613C196.702 23.9613 198.665 24.2014 200.704 24.6912V34.5447C199.526 34.1125 198.339 33.9012 197.162 33.9012C195.123 33.9012 193.361 34.4102 191.887 35.4378C190.412 36.4558 189.675 37.8868 189.675 39.7211V66.6116H178.483V39.3177L178.493 39.2985Z" fill="white"/>
  <path d="M167.684 5.6374C164.621 5.61819 162.112 8.11516 162.093 11.2268L162.036 18.3143H173.132L173.189 11.3036C173.208 8.19199 170.748 5.6566 167.684 5.6374Z" fill="white"/>
  <path d="M18.8984 20.648V20.2447C18.8984 18.8425 19.4729 17.7189 20.6313 16.8546C21.761 16.0094 23.3024 15.5869 25.2267 15.5677L39.0033 15.5196V5.647C39.0033 5.647 23.5609 5.62779 23.4843 5.62779C18.8697 5.62779 15.0881 6.96271 12.1394 9.62295C9.19066 12.2832 7.71631 15.9326 7.71631 20.5616V66.7364H18.908V33.2386H31.0762V23.2315H18.908V20.648H18.8984Z" fill="white"/>
  <path d="M154.08 29.6564C152.548 27.4763 150.528 25.8629 148 24.8161C145.473 23.7693 142.773 23.2411 139.872 23.2411H131.045V33.2386H141.825C142.381 33.4594 142.898 33.7283 143.367 34.0645C144.736 35.0345 145.415 36.5134 145.415 38.5014V41.1616C143.482 40.5182 141.26 40.1917 138.733 40.1917C134.118 40.1917 130.375 41.3729 127.503 43.7451C124.631 46.1172 123.195 49.3152 123.195 53.3488C123.195 57.8722 124.727 61.2239 127.781 63.4039C130.835 65.584 135.047 66.6788 140.418 66.6788C143.099 66.6788 145.837 66.4195 148.632 65.9105C151.418 65.4015 153.994 64.71 156.358 63.8553V37.6179C156.358 34.4966 155.592 31.846 154.07 29.666L154.08 29.6564ZM145.348 57.3151C143.415 57.7473 141.643 57.9586 140.035 57.9586C138.264 57.9586 136.79 57.584 135.602 56.8254C134.425 56.0763 133.831 54.8854 133.831 53.272C133.831 51.6585 134.434 50.4581 135.641 49.5169C136.847 48.5757 138.446 48.1052 140.428 48.1052C142.247 48.1052 143.884 48.4317 145.339 49.0751V57.3151H145.348Z" fill="white"/>
  <path d="M116.771 20.648V20.2447C116.771 18.8425 117.345 17.7189 118.504 16.8546C119.634 16.0094 121.175 15.5869 123.099 15.5677L136.876 15.5196V5.647C136.876 5.647 121.433 5.62779 121.357 5.62779C116.742 5.62779 112.961 6.96271 110.012 9.62295C107.063 12.2832 105.589 15.9326 105.589 20.5616V66.7364H116.781V33.2386H128.91V23.2315H116.781V20.648H116.771Z" fill="white"/>
</svg>