<svg xmlns="http://www.w3.org/2000/svg" width="26" height="27" viewBox="0 0 26 27" fill="none">
    <path
        d="M13 26.8731C9.92189 26.8731 6.93641 25.778 4.59352 23.7896C4.04341 23.323 3.52737 22.8057 3.05988 22.2522C1.08657 19.9132 0 16.9376 0 13.8731C0 10.4006 1.3522 7.13602 3.80758 4.68064C6.26295 2.22527 9.52753 0.873062 13 0.873062C16.4725 0.873062 19.737 2.22527 22.1924 4.68064C24.6478 7.13602 26 10.4006 26 13.8731C26 16.9376 24.9134 19.9132 22.9404 22.2519C22.4726 22.8057 21.9566 23.323 21.4063 23.7897C19.0636 25.778 16.0781 26.8731 13 26.8731ZM13 2.49806C6.7278 2.49806 1.625 7.60087 1.625 13.8731C1.625 16.5546 2.57557 19.1581 4.30163 21.204C4.71093 21.6886 5.16293 22.1417 5.64484 22.5505C7.69458 24.2901 10.3066 25.2481 13 25.2481C15.6934 25.2481 18.3054 24.2901 20.355 22.5506C20.8371 22.1417 21.2891 21.6885 21.6986 21.2036C23.4244 19.1581 24.375 16.5546 24.375 13.8731C24.375 7.60087 19.2722 2.49806 13 2.49806Z"
        fill="black" />
    <path
        d="M13 13.8731C10.3119 13.8731 8.125 11.6862 8.125 8.99813C8.125 6.31003 10.3119 4.12314 13 4.12314C15.6881 4.12314 17.875 6.31003 17.875 8.99813C17.875 11.6862 15.6881 13.8731 13 13.8731ZM13 5.74814C11.2079 5.74814 9.75 7.20607 9.75 8.99813C9.75 10.7902 11.2079 12.2481 13 12.2481C14.7921 12.2481 16.25 10.7902 16.25 8.99813C16.25 7.20607 14.7921 5.74814 13 5.74814Z"
        fill="black" />
    <path
        d="M20.8814 23.9829C20.8158 23.9829 20.7493 23.9749 20.6829 23.9582C20.2477 23.849 19.9834 23.4076 20.0927 22.9724C20.2385 22.3913 20.3125 21.7901 20.3125 21.1856C20.3125 17.2102 17.0805 13.9307 13.107 13.8736L13 13.8731L12.893 13.8736C8.91952 13.9307 5.6875 17.2102 5.6875 21.1856C5.6875 21.7901 5.76149 22.3913 5.90733 22.9724C6.01656 23.4076 5.7523 23.849 5.3171 23.9582C4.88191 24.0675 4.44046 23.8033 4.33123 23.368C4.15289 22.6576 4.0625 21.9234 4.0625 21.1856C4.0625 18.8203 4.97743 16.5908 6.63873 14.9075C8.29842 13.226 10.5126 12.2817 12.8734 12.2487C12.8772 12.2487 12.8809 12.2487 12.8847 12.2487L13 12.2481L13.1153 12.2486C13.1191 12.2486 13.1228 12.2486 13.1266 12.2487C15.4874 12.2816 17.7016 13.2259 19.3613 14.9075C21.0226 16.5908 21.9375 18.8203 21.9375 21.1856C21.9375 21.9234 21.8471 22.6576 21.6688 23.368C21.5762 23.7368 21.2451 23.9828 20.8814 23.9829Z"
        fill="black" />
</svg>