<svg xmlns="http://www.w3.org/2000/svg" width="24" height="20" viewBox="0 0 24 20" fill="none">
    <path
        d="M23 10.9962H1C0.447998 10.9962 0 10.5087 0 9.90803C0 9.30739 0.447998 8.81992 1 8.81992H23C23.552 8.81992 24 9.30739 24 9.90803C24 10.5087 23.552 10.9962 23 10.9962Z"
        fill="black" />
    <path
        d="M23 2.65383H1C0.447998 2.65383 0 2.16635 0 1.56571C0 0.965067 0.447998 0.477592 1 0.477592H23C23.552 0.477592 24 0.965067 24 1.56571C24 2.16635 23.552 2.65383 23 2.65383Z"
        fill="black" />
    <path
        d="M23 19.3382H1C0.447998 19.3382 0 18.8507 0 18.2501C0 17.6495 0.447998 17.162 1 17.162H23C23.552 17.162 24 17.6495 24 18.2501C24 18.8507 23.552 19.3382 23 19.3382Z"
        fill="black" />
</svg>