<svg xmlns="http://www.w3.org/2000/svg" width="31" height="34" viewBox="0 0 31 34" fill="none">
    <path
        d="M8.05475 25.876H8.05589C8.05684 25.876 8.0578 25.8758 8.05875 25.8758H21.3379C21.6648 25.8758 21.9523 25.6488 22.0421 25.3198L24.9718 14.5864C25.0349 14.355 24.9907 14.1063 24.8524 13.9142C24.7139 13.7221 24.4975 13.6091 24.2676 13.6091H6.3656L5.84203 11.1428C5.76745 10.792 5.47028 10.5425 5.12696 10.5425H0.732423C0.327874 10.5425 0 10.8857 0 11.3091C0 11.7326 0.327874 12.0758 0.732423 12.0758H4.5395C4.63219 12.5128 7.04499 23.8783 7.18385 24.5321C6.40546 24.8863 5.85939 25.6987 5.85939 26.6425C5.85939 27.9107 6.8451 28.9425 8.05665 28.9425H21.3379C21.7425 28.9425 22.0703 28.5993 22.0703 28.1758C22.0703 27.7523 21.7425 27.4091 21.3379 27.4091H8.05665C7.65287 27.4091 7.32423 27.0651 7.32423 26.6425C7.32423 26.2204 7.65172 25.877 8.05475 25.876ZM23.2966 15.1425L20.7854 24.3425H8.64412L6.69099 15.1425H23.2966Z"
        fill="black" />
    <path
        d="M7.32422 31.2425C7.32422 32.5107 8.30994 33.5425 9.52149 33.5425C10.733 33.5425 11.7188 32.5107 11.7188 31.2425C11.7188 29.9743 10.733 28.9425 9.52149 28.9425C8.30994 28.9425 7.32422 29.9743 7.32422 31.2425ZM9.52149 30.4758C9.92527 30.4758 10.2539 30.8198 10.2539 31.2425C10.2539 31.6651 9.92527 32.0091 9.52149 32.0091C9.1177 32.0091 8.78906 31.6651 8.78906 31.2425C8.78906 30.8198 9.1177 30.4758 9.52149 30.4758Z"
        fill="black" />
    <path
        d="M17.6758 31.2425C17.6758 32.5107 18.6615 33.5425 19.8731 33.5425C21.0846 33.5425 22.0703 32.5107 22.0703 31.2425C22.0703 29.9743 21.0846 28.9425 19.8731 28.9425C18.6615 28.9425 17.6758 29.9743 17.6758 31.2425ZM19.8731 30.4758C20.2768 30.4758 20.6055 30.8198 20.6055 31.2425C20.6055 31.6651 20.2768 32.0091 19.8731 32.0091C19.4693 32.0091 19.1406 31.6651 19.1406 31.2425C19.1406 30.8198 19.4693 30.4758 19.8731 30.4758Z"
        fill="black" />
    <circle cx="23.5" cy="7.5" r="6.5" fill="white" stroke="white" stroke-width="2" />
</svg>