<svg xmlns="http://www.w3.org/2000/svg" width="274" height="551" viewBox="0 0 274 551" fill="none">
    <path
        d="M155.513 146.652C160.65 146.195 165.389 145.69 170.135 145.367C186.757 144.236 203.188 144.399 219.105 147.87C244.486 153.412 260.833 167.033 268.704 188.108C279.232 216.325 273.33 243.43 253.708 269.503C238.729 289.394 219.164 305.712 198.021 320.776C179.644 333.87 159.529 344.709 139.381 355.515C138.515 355.976 137.674 356.491 136.589 357.11C138.017 358.118 139.603 358.069 141.035 358.258C154.325 360.039 167.743 361.313 180.806 363.889C197.588 367.195 213.795 371.626 228.309 379.278C265.911 399.13 275.434 439.398 250.644 473.729C238.334 490.774 221.505 504.031 202.014 514.872C170.175 532.581 136.204 544.84 99.2336 549.28C75.2028 552.169 52.3747 550.026 30.9394 541.84C30.3978 541.634 29.8286 541.456 29.3485 541.173C29.0694 541.004 28.7532 540.62 28.8181 540.379C28.9525 539.854 29.5642 539.788 30.0876 539.839C30.5815 539.894 31.059 540.032 31.5356 540.158C60.379 548.191 89.8516 546.029 119.558 538.252C151.679 529.843 181.77 517.432 208.753 499.399C224.004 489.205 237.01 477.263 245.496 462.256C261.075 434.73 252.331 403.972 224.385 387.999C208.57 378.953 190.542 374.064 171.813 370.523C161.203 368.519 150.371 367.278 139.613 365.802C136.494 365.378 133.361 364.956 130.423 364.039C127.47 363.111 124.979 361.682 124.719 358.673C124.474 355.782 126.53 353.739 129.169 352.18C134.441 349.07 139.747 346.019 145.142 343.077C170.959 329.008 195.337 313.353 216.872 294.505C232.008 281.26 245.64 267.097 254.562 250.239C266.787 227.144 266.397 204.623 254.878 182.986C245.623 165.618 228.276 157.168 206.541 154.09C189.359 151.663 171.926 152.569 154.405 154.662C152.726 154.861 152.152 155.583 151.681 156.816C145.987 171.617 137.886 185.534 127.319 198.49C111.066 218.431 90.4774 233.474 63.3165 240.912C54.5645 243.314 45.7145 244.091 36.8975 242.668C25.2712 240.784 18.5626 234.323 18.107 224.119C17.583 212.394 23.6602 202.48 32.8977 193.697C41.662 185.372 52.4609 179.292 63.6133 173.705C88.6305 161.165 115.302 153.199 143.149 148.587C145.638 148.173 146.598 147.348 147.281 145.323C153.357 127.254 157.386 109.118 155.113 90.7096C150.756 55.4243 129.731 30.8911 92.3793 17.0003C67.6737 7.81102 41.1135 5.92728 13.678 7.69645C-25.8811 10.259 -64.3053 18.7978 -101.922 31.1616C-143.96 44.9864 -183.851 62.6665 -220.593 85.8074C-233.344 93.8365 -245.605 102.393 -255.917 112.814C-264.515 121.503 -272.636 130.425 -277.193 141.16C-277.716 142.405 -278.545 143.724 -276.553 144.501C-276.278 144.607 -276.204 145.039 -276.036 145.321C-278.104 145.692 -279.101 148.012 -281.256 147.896C-283.425 147.782 -283.867 146.217 -283.609 144.588C-282.668 138.674 -279.912 133.225 -276.286 128.019C-263.876 110.163 -246.996 95.8241 -227.694 83.3316C-187.093 57.0466 -142.599 37.626 -95.5691 22.7571C-58.1821 10.9366 -20.0553 3.03714 19.0897 1.03332C45.3441 -0.312849 70.6746 1.93671 94.5103 10.2535C144.152 27.5664 167.204 66.8561 163.614 110.149C162.671 121.494 159.903 132.652 156.373 143.749C156.098 144.606 155.861 145.465 155.519 146.632L155.513 146.652ZM143.014 156.495C142.26 156.534 141.947 156.52 141.646 156.575C113.312 161.553 86.25 169.879 61.2484 183.5C50.5006 189.354 40.213 195.738 33.3299 205.275C29.1088 211.118 26.3289 217.287 27.1407 224.063C27.8754 230.155 31.6846 233.789 38.6333 235.043C42.9426 235.823 47.3576 235.879 51.8368 235.361C66.2092 233.691 78.7862 227.979 90.6067 220.677C107.177 210.44 119.291 196.992 129.368 182.106C134.864 173.992 139.357 165.543 143.008 156.514L143.014 156.495Z"
        fill="#F6F3E5" fill-opacity="0.5" />
</svg>