<svg xmlns="http://www.w3.org/2000/svg" fill="rgba(246, 243, 229, 0.50);">
    <path
        d="M2155.33 154.676C2152.51 155.517 2150.49 156.2 2148.21 156.095C2138.31 155.635 2128.47 156.463 2118.67 156.936C2105.2 157.593 2091.69 158.145 2078.28 159.537C2067.57 160.641 2056.68 160.969 2045.91 161.875C2030.09 163.215 2014.18 163.557 1998.34 164.542C1991.18 164.989 1983.98 165.002 1976.82 165.212C1957.78 165.777 1938.74 166.368 1919.72 167.012C1890.06 168.01 1860.42 167.235 1830.77 167.551C1825.55 167.603 1820.5 168.457 1815.23 168.312C1794.95 167.774 1774.62 167.892 1754.36 167.406C1735.53 166.946 1716.66 166.263 1697.84 164.884C1683.74 163.859 1669.59 162.966 1655.55 161.718C1637.02 160.076 1618.65 157.764 1600.24 155.57C1571.43 152.128 1542.93 147.832 1514.51 143.247C1480.22 137.717 1446.97 130.163 1414.31 121.348C1372.53 110.077 1332.34 96.5328 1291.54 83.8426C1246.48 69.8256 1200.69 56.9909 1154.28 45.0626C1123.25 37.0886 1091.36 30.9931 1059.03 26.0274C1033.81 22.1651 1008.38 18.8021 982.858 15.9777C966.078 14.1254 949.168 12.5752 932.048 12.1023C915.928 11.6556 899.808 10.3945 883.688 10.8543C855.639 11.6556 827.832 13.6919 801.46 20.7332C791.433 23.4131 782.745 27.3673 775.362 32.622C768.479 37.5221 767.527 43.7621 766.173 49.897C763.288 63.0601 769.962 75.3956 774.121 87.915C777.425 97.8859 782.358 107.712 781.213 118.09C779.488 133.815 768.188 151.773 737.802 156.529C714.186 160.22 690.603 162.94 666.503 161.705C643.726 160.535 621.69 156.437 600.379 150.985C561.788 141.119 526.195 127.496 491.392 112.77C459.007 99.0551 426.509 85.3796 391.577 74.6074C363.883 66.0685 335.157 59.3424 305.818 53.6279C275.239 47.6637 244.288 42.8294 213.032 38.9015C198.814 37.1148 184.386 35.9588 169.927 35.0392C149.922 33.7649 129.965 32.3462 109.896 31.4397C92.5508 30.6647 75.1895 30.599 57.8605 29.9815C26.5555 28.878 -4.74954 29.548 -36.0385 29.4955C-54.8344 29.4561 -73.727 29.7319 -92.4101 30.9931C-116.074 32.5958 -139.706 32.0309 -163.354 32.2411C-166.756 32.2673 -169.996 31.2164 -173.478 31.5186C-174.606 31.6105 -175.67 31.177 -175.67 30.3888C-175.67 29.7451 -174.638 29.5612 -173.703 29.4035C-164.015 27.7483 -154.392 25.896 -144.639 24.4378C-124.86 21.4951 -104.839 19.9844 -84.5597 19.2225C-60.0089 18.3029 -35.4904 17.8956 -10.9235 17.9351C9.968 17.9613 30.8595 17.7511 51.7349 18.0007C71.7882 18.2372 91.8576 18.6839 111.879 19.4458C128.192 20.0632 144.506 21.1142 160.754 22.2834C205.713 25.5282 249.946 31.0719 293.551 39.1905C334.206 46.7704 373.813 55.9399 411.404 68.7484C436.278 77.2216 459.764 87.2582 483.203 97.2816C516.491 111.522 549.198 126.38 585.581 137.152C610.035 144.39 635.086 150.118 661.764 152.601C689.281 155.163 715.847 152.351 741.719 146.532C757.807 142.906 764.577 133.776 768.221 123.49C771.477 114.333 768.221 105.426 764.852 96.6641C760.58 85.5635 755.228 74.5286 753.6 63.1652C751.762 50.3305 752.294 37.3119 764.723 26.1456C773.492 18.2635 785.743 13.4948 799.203 10.1975C816.323 5.99367 834.168 3.70786 852.303 2.07889C873.774 0.160908 895.295 0.502465 916.75 0.922844C931.613 1.21185 946.508 2.21025 961.354 3.45825C1004.12 7.05775 1046.11 13.1532 1087.78 20.2077C1119.38 25.5544 1149.94 33.1212 1180.17 41.2661C1241.18 57.7003 1300.34 76.7356 1359.41 95.9416C1399.19 108.881 1439.86 120.481 1482.29 129.138C1516.3 136.075 1550.93 141.395 1585.76 146.19C1606.3 149.014 1626.88 151.616 1647.57 153.888C1662.22 155.491 1677.07 156.332 1691.8 157.593C1709.1 159.064 1726.49 159.774 1743.88 160.575C1775.64 162.033 1807.38 161.889 1839.15 161.836C1850.45 161.823 1861.67 162.966 1872.99 162.624C1892.38 162.02 1911.82 162.086 1931.21 161.757C1948.93 161.455 1966.66 160.824 1984.39 160.325C1998.5 159.931 2012.64 159.642 2026.73 158.985C2043.76 158.184 2060.79 157.304 2077.76 156.082C2089.5 155.241 2101.25 155.018 2113 154.611C2125.02 154.19 2137.02 154.02 2149.04 154.02C2150.78 154.02 2152.61 153.704 2155.28 154.716L2155.33 154.676Z"
        fill="#F6F3E5" fill-opacity="0.5" />
</svg>