<svg width="143" height="143" viewBox="0 0 143 143" fill="none" xmlns="http://www.w3.org/2000/svg">
<g id="Webasite Icons-SolidWood 1">
<path id="Vector" d="M61.8259 124.017C92.378 124.017 117.145 99.2494 117.145 68.6972C117.145 38.1451 92.378 13.3777 61.8259 13.3777C31.2738 13.3777 6.50635 38.1451 6.50635 68.6972C6.50635 99.2494 31.2738 124.017 61.8259 124.017Z" fill="#F6F3E4"/>
<g id="Group">
<path id="Vector_2" d="M80.3304 133.884C78.4142 133.626 76.4909 133.419 74.589 133.09C69.8056 132.275 65.2439 130.738 60.911 128.55C59.1879 127.678 58.5158 126.183 59.0306 124.281C60.0745 120.42 61.1613 116.566 62.2266 112.713C62.3053 112.441 62.3553 112.162 62.4554 111.726C61.9907 111.94 61.6689 112.069 61.3615 112.226C57.8294 114.028 54.2901 115.837 50.758 117.646C48.5058 118.797 47.2402 118.433 45.4456 116.617C43.2648 114.407 42.2281 112.076 44.0513 108.902C43.2005 108.902 42.6642 108.902 42.128 108.902C40.5907 108.923 39.4753 108.237 38.7961 106.878C38.1383 105.555 37.5162 104.218 36.9228 102.867C36.458 101.802 36.7297 100.951 37.5734 100.615C38.4314 100.272 39.1607 100.672 39.6541 101.737C40.1903 102.896 40.7552 104.047 41.2628 105.219C41.5131 105.791 41.8849 105.992 42.4855 105.956C43.1433 105.92 43.8011 105.92 44.4517 105.963C46.2464 106.092 47.2331 107.407 46.8255 109.152C46.6182 110.046 46.2893 110.918 46.132 111.819C46.0605 112.212 46.1677 112.741 46.4037 113.056C48.2913 115.587 48.3056 115.573 51.0869 114.157C51.8377 113.771 52.5813 113.378 53.1175 113.099C51.0941 110.282 48.8919 107.643 47.1616 104.726C34.4489 83.3261 43.3006 55.3839 65.9518 45.0879C70.1774 43.1717 74.5818 41.9777 79.1793 41.47C79.5368 41.4271 79.9014 41.4057 80.2589 41.4057C81.1384 41.4057 81.739 41.9419 81.8033 42.7356C81.8677 43.5078 81.3457 44.1799 80.4949 44.3157C79.4295 44.4873 78.3427 44.5588 77.2702 44.7304C60.6965 47.3974 47.4118 60.5605 44.8378 77.0842C42.8144 90.0757 46.561 101.337 55.5271 110.911C56.0347 111.454 56.4137 111.476 57.0286 111.14C58.6087 110.274 60.2389 109.495 61.8405 108.659C62.8916 108.108 63.9212 108.015 64.865 108.823C65.773 109.588 65.9017 110.575 65.58 111.69C65.0294 113.578 64.5289 115.473 63.9927 117.417C67.0672 119.226 70.3133 120.506 73.7238 121.393C93.5436 126.512 113.8 115.651 120.535 96.2962C128.357 73.8238 114.322 49.4566 90.9625 44.9592C89.7398 44.7233 88.5029 44.5588 87.2659 44.4087C85.9575 44.2514 85.3354 43.708 85.4284 42.7213C85.5213 41.7775 86.2292 41.3199 87.4876 41.4486C95.6958 42.278 103.11 45.1451 109.552 50.3074C118.762 57.6862 124.131 67.2815 125.368 79.0075C127.685 101.022 113.02 120.156 92.5212 124.574C82.5255 126.734 72.9445 125.411 63.8497 120.721C63.6566 120.621 63.4493 120.542 63.1561 120.413C62.7057 122.015 62.2266 123.545 61.8763 125.104C61.8191 125.361 62.2481 125.89 62.5698 126.055C66.4022 127.992 70.4277 129.408 74.6533 130.094C91.9277 132.904 106.628 127.964 118.676 115.265C119.963 113.914 121.064 112.384 122.179 110.889C122.437 110.546 122.53 109.996 122.494 109.552C122.415 108.609 122.158 107.679 122.065 106.735C121.901 104.948 123.273 103.675 125.018 104.033C125.869 104.204 126.355 104.075 126.662 103.189C127.413 101.022 128.235 98.8774 129.058 96.7395C129.301 96.1103 129.222 95.6027 128.772 95.1165C128.529 94.8519 128.321 94.5516 128.114 94.2585C127.006 92.6998 127.506 90.9266 129.329 90.3045C130.23 89.9971 130.609 89.5323 130.702 88.5814C131.088 84.606 131.053 80.6449 130.459 76.6909C130.402 76.2977 129.966 75.933 129.637 75.6327C129.408 75.4254 129.043 75.3682 128.75 75.2252C127.091 74.3886 126.655 72.5082 127.999 71.2355C128.965 70.3274 128.972 69.5266 128.564 68.3898C127.206 64.5717 125.526 60.918 123.273 57.5361C123.03 57.1643 122.573 56.8425 122.151 56.6995C120.907 56.2848 119.627 55.9774 118.376 55.6056C116.638 55.0908 115.973 53.6536 116.681 51.9877C117.453 50.1787 117.468 50.1644 116.023 48.8274C108.408 41.7346 99.471 37.4589 89.1178 36.2648C76.9556 34.8634 65.866 37.7163 55.8417 44.7376C55.1767 45.2023 54.8264 45.7028 54.9265 46.5179C54.9765 46.904 54.9408 47.3044 54.9265 47.6977C54.8764 49.6496 53.4464 50.8294 51.6375 50.1787C50.2718 49.6854 49.5211 50.0858 48.6202 51.0725C41.7347 58.63 37.5877 67.4388 36.315 77.599C35.5786 83.5049 35.979 89.325 37.3947 95.095C37.6664 96.2033 37.2731 97.0041 36.3794 97.1971C35.4713 97.3902 34.7921 96.904 34.5347 95.7528C30.4449 77.6061 34.6634 61.7045 47.3975 48.1052C48.613 46.8111 49.2422 46.7038 51.8663 47.1114C51.902 46.9326 51.9735 46.7467 51.9592 46.568C51.7876 44.6232 52.6528 43.3147 54.2401 42.2208C64.1857 35.3139 75.1753 32.2108 87.2516 33.1045C99.5925 34.0197 110.153 38.9389 118.983 47.5833C120.442 49.0061 120.664 50.286 119.863 52.1307C119.77 52.338 119.684 52.5454 119.555 52.8528C120.649 53.1746 121.7 53.5464 122.773 53.7823C124.189 54.0969 125.139 54.8906 125.905 56.1061C128.2 59.7669 130.03 63.6279 131.431 67.7177C132.061 69.5624 132.239 71.2355 130.566 72.7227C131.002 72.9586 131.353 73.1231 131.675 73.3233C132.633 73.9024 133.183 74.7604 133.326 75.8687C133.519 77.3916 133.712 78.9146 133.898 80.4375V86.5508C133.827 87.0656 133.727 87.5804 133.691 88.0952C133.555 90.1687 133.24 92.1349 130.781 92.8642C131.06 93.2503 131.267 93.5363 131.474 93.8223C132.168 94.759 132.411 95.8386 132.039 96.8968C131.081 99.6496 130.066 102.381 128.972 105.076C128.436 106.399 127.306 107.057 125.847 107.078C125.604 107.078 125.361 107.107 125.089 107.128C125.225 107.951 125.325 108.701 125.476 109.438C125.69 110.475 125.44 111.39 124.839 112.226C116.717 123.559 105.827 130.552 92.1065 133.083C90.2761 133.419 88.4171 133.605 86.5724 133.862H80.2661L80.3304 133.884Z" fill="black"/>
<path id="Vector_3" d="M63.2847 83.4191C63.2775 72.9658 71.2569 64.2214 81.5029 63.3562C92.521 62.4196 101.873 69.8198 103.425 80.4733C104.168 85.5927 103.103 90.326 100.257 94.6518C99.8069 95.3382 99.2778 95.8244 98.3983 95.6099C97.3473 95.3525 97.0112 94.2156 97.7048 93.1574C98.9203 91.2984 99.814 89.3107 100.293 87.1371C102.367 77.7063 96.2104 68.2897 86.7867 66.5022C77.2415 64.6933 68.0251 70.9853 66.5236 80.5162C65.3796 87.752 67.8893 93.6865 73.9668 97.7334C80.0443 101.78 86.4292 101.666 92.7284 97.9551C92.8714 97.8693 93.0001 97.7763 93.1431 97.6905C94.0511 97.1543 94.9306 97.2901 95.3882 98.0409C95.8458 98.7916 95.5884 99.6067 94.6946 100.207C91.327 102.46 87.609 103.596 83.5621 103.611C72.3795 103.668 63.2847 94.6017 63.2847 83.4263V83.4191Z" fill="black"/>
<path id="Vector_4" d="M83.5481 119.083C79.1866 118.876 74.9752 118.139 70.9212 116.574C69.7557 116.123 69.2624 115.422 69.5555 114.564C69.8701 113.635 70.721 113.356 71.9365 113.807C80.9169 117.103 89.74 116.674 98.2485 112.355C100.737 111.09 102.96 109.281 105.213 107.6C106.593 106.578 106.736 105.091 105.792 104.011C104.819 102.903 103.461 102.924 102.152 104.09C97.7623 108.001 92.6643 110.317 86.8228 111.09C73.152 112.891 59.8458 103.861 56.4853 90.4618C56.3423 89.8898 56.1922 89.3178 56.0992 88.7315C55.9419 87.7448 56.3852 87.0298 57.2361 86.851C58.044 86.6794 58.7304 87.2228 59.0093 88.1666C59.5455 89.9827 59.9459 91.8703 60.711 93.5935C67.5178 109.03 87.3876 113.22 100.107 101.945C101.459 100.751 102.932 100.028 104.755 100.307C106.936 100.651 108.43 101.887 109.074 103.982C109.717 106.077 109.202 107.965 107.586 109.459C102.824 113.857 97.2761 116.788 90.934 118.082C88.503 118.583 86.0077 118.761 83.5338 119.083H83.5481Z" fill="black"/>
<path id="Vector_5" d="M118.976 82.4324C118.883 89.2964 117.596 94.7733 114.901 99.8927C114.672 100.329 114.279 100.844 113.864 100.965C113.421 101.094 112.749 100.937 112.363 100.651C111.769 100.222 111.819 99.5352 112.119 98.8631C112.892 97.1257 113.757 95.4168 114.35 93.6222C120.456 75.2181 109.038 55.4841 90.0402 51.5659C89.3324 51.4229 88.6174 51.3299 87.9024 51.2227C86.3723 50.9939 85.1854 51.7875 85.0066 53.1603C84.8279 54.5617 85.7073 55.6056 87.2732 55.8201C90.126 56.2062 92.843 57.0285 95.4385 58.2583C98.2484 59.5953 100.801 61.3256 102.967 63.5636C103.332 63.9425 103.547 64.679 103.475 65.2081C103.425 65.587 102.803 66.1233 102.403 66.1519C101.902 66.1876 101.237 65.9159 100.858 65.5513C97.133 62.0192 92.7644 59.7812 87.7093 58.8732C87.1588 58.7731 86.6011 58.7159 86.0577 58.5943C83.3049 57.9794 81.6032 55.3196 82.0966 52.4668C82.5613 49.7855 85.2354 47.8693 87.9739 48.2483C103.368 50.379 115.33 61.6045 118.29 76.7768C118.719 78.9933 118.833 81.267 118.969 82.4396L118.976 82.4324Z" fill="black"/>
<path id="Vector_6" d="M83.3837 97.3329C75.7118 97.2614 69.477 90.9551 69.5485 83.3332C69.62 75.6541 75.912 69.4479 83.5553 69.5122C91.2344 69.5766 97.4549 75.8757 97.3763 83.5119C97.2976 91.2053 91.0199 97.4044 83.3837 97.3329ZM94.409 83.5691C94.552 77.5846 89.6972 72.6082 83.5911 72.4795C77.6208 72.3508 72.6301 77.2414 72.5157 83.3332C72.4013 89.2677 77.2204 94.194 83.3051 94.3728C89.261 94.5515 94.2732 89.6824 94.4162 83.5763L94.409 83.5691Z" fill="black"/>
<path id="Vector_7" d="M47.9053 83.5049C47.9339 68.2611 57.7937 54.5545 72.2582 49.764C72.5084 49.6782 72.7515 49.5853 73.0089 49.5352C73.8312 49.3922 74.4389 49.6997 74.7464 50.4719C75.0395 51.2012 74.682 51.9805 73.8812 52.3166C72.4012 52.9315 70.8639 53.4248 69.4196 54.1184C57.5864 59.7955 50.2934 72.0935 51.0084 85.1851C51.3802 92.0348 53.7254 98.1695 57.9868 103.553C58.1298 103.732 58.2799 103.911 58.4086 104.097C58.9663 104.905 58.8734 105.756 58.1727 106.27C57.5292 106.742 56.664 106.614 56.0777 105.899C51.9522 100.865 49.3424 95.1379 48.4058 88.6886C48.1555 86.9726 48.0697 85.228 47.9053 83.4977V83.5049Z" fill="black"/>
<path id="Vector_8" d="M55.8777 79.5795C56.3996 75.6827 57.7367 71.9719 59.8888 68.5685C62.5844 64.3142 66.1737 61.0181 70.6424 58.6872C71.6863 58.1438 72.5229 58.2868 72.9662 59.0733C73.4166 59.8741 73.1092 60.7035 72.1082 61.254C64.6293 65.3152 60.1677 71.5071 58.8163 79.9298C58.659 80.9094 57.9583 81.4814 57.1432 81.3741C56.3138 81.2669 55.8348 80.6162 55.8777 79.5795Z" fill="black"/>
<path id="Vector_9" d="M111.319 83.369C111.361 87.5375 110.461 91.4915 108.694 95.2667C108.201 96.3249 107.45 96.7109 106.607 96.3534C105.734 95.9816 105.513 95.1236 106.02 94.0082C109.073 87.2515 109.181 80.4518 106.364 73.6021C105.77 72.165 106.478 70.9137 107.758 71.2283C108.258 71.3499 108.816 71.9004 109.031 72.3938C110.575 75.883 111.347 79.5509 111.311 83.3762L111.319 83.369Z" fill="black"/>
<path id="Vector_10" d="M83.5122 90.3045C79.737 90.3259 76.5981 87.2157 76.5981 83.4333C76.5981 79.6867 79.6512 76.5836 83.3906 76.5407C87.1658 76.4978 90.3261 79.5795 90.3619 83.3618C90.3976 87.1299 87.2874 90.283 83.5122 90.3045ZM83.5122 87.3444C85.6286 87.3229 87.3946 85.5426 87.4018 83.4262C87.4018 81.274 85.5857 79.4651 83.4335 79.4937C81.2742 79.5151 79.501 81.3455 79.5511 83.5048C79.6011 85.6284 81.3958 87.3658 83.5122 87.3444Z" fill="black"/>
</g>
</g>
</svg>
