<svg width="146" height="146" viewBox="0 0 146 146" fill="none" xmlns="http://www.w3.org/2000/svg">
<g id="Webasite Icons-Authenticity 1">
<path id="Vector" d="M63.1232 126.619C94.3163 126.619 119.603 101.332 119.603 70.1384C119.603 38.9453 94.3163 13.6583 63.1232 13.6583C31.9301 13.6583 6.64307 38.9453 6.64307 70.1384C6.64307 101.332 31.9301 126.619 63.1232 126.619Z" fill="#F6F3E4"/>
<g id="Group">
<path id="Vector_2" d="M117.748 57.3342C117.748 58.7723 117.799 60.2104 117.726 61.6485C117.683 62.4807 117.967 62.8311 118.756 63.0939C125.588 65.3715 130.282 71.8612 130.348 79.059C130.421 86.6291 125.421 93.3816 118.091 95.5862C117.58 95.7395 117.186 95.8636 117.055 96.5133C115.69 103.47 112.076 109.179 107.185 114.165C102.353 119.092 96.7023 122.954 90.8769 126.567C85.38 129.976 79.8466 133.313 74.3351 136.692C73.6927 137.087 73.1306 137.203 72.4371 136.773C65.4875 132.466 58.4795 128.254 51.5883 123.852C46.0549 120.326 40.9449 116.252 36.7328 111.157C31.5206 104.85 28.8415 97.6448 28.8634 89.4323C28.8926 77.4457 28.8634 65.4591 28.8707 53.4725C28.8707 50.2386 30.2066 48.3698 33.2799 47.3332C46.3688 42.924 59.4504 38.5148 72.5539 34.1494C73.1087 33.9669 73.846 34.0472 74.4154 34.2443C86.2487 38.2009 98.0674 42.1867 109.886 46.1725C111.149 46.5959 112.419 47.012 113.675 47.4573C116.303 48.3844 117.661 50.2313 117.734 53.0053C117.77 54.4434 117.734 55.8815 117.734 57.3196L117.748 57.3342ZM100.695 90.8047C99.469 95.4475 97.5418 99.5428 94.6583 103.142C93.6144 104.448 92.4318 105.646 91.2638 106.85C90.7382 107.398 90.0739 107.412 89.5337 106.85C88.9935 106.295 89.0592 105.675 89.5556 105.105C89.76 104.872 89.9936 104.675 90.2126 104.456C94.5415 100.127 97.3155 94.9511 98.5346 88.9578C98.6222 88.5125 98.5346 87.9358 98.3156 87.5343C96.1694 83.5558 95.4978 79.3364 96.7607 75.0221C97.3301 73.0803 97.0089 71.5984 96.0526 70.0435C95.7825 69.6055 95.5343 69.1529 95.2569 68.7295C87.9569 57.4656 70.5975 54.3777 59.3117 62.3493C54.1068 66.0212 50.7634 71.029 48.7851 77.015C48.442 78.0443 47.8288 78.4458 47.0623 78.1246C46.1498 77.745 46.1425 77.0077 46.4637 76.2339C47.2156 74.4016 47.8653 72.5109 48.7851 70.7662C58.7204 52.0344 81.4307 51.684 93.6655 63.0282C95.7971 65.0065 97.4834 67.3133 98.7828 69.9048C98.8923 69.8391 98.9726 69.8172 99.0018 69.7661C101.331 66.4227 104.389 64.0794 108.295 62.8457C108.521 62.7727 108.747 62.2909 108.755 61.9989C108.798 60.152 108.718 58.2978 108.798 56.4509C108.842 55.5311 108.521 55.1661 107.667 54.8814C96.4833 51.1438 85.3143 47.3624 74.1234 43.6248C73.6197 43.4569 72.97 43.4715 72.4663 43.6394C61.217 47.3989 49.9823 51.2022 38.7403 54.969C38.0687 55.1953 37.8643 55.4873 37.8643 56.1881C37.8862 67.4228 37.8862 78.6575 37.8789 89.8849C37.8789 95.2869 39.5579 100.098 42.8283 104.368C45.3906 107.711 48.5004 110.485 51.8292 113.04C57.5743 117.442 63.845 121.041 70.0354 124.75C71.0939 125.385 72.1597 126.48 73.2255 126.472C74.3278 126.472 75.4374 125.414 76.5105 124.757C82.971 120.83 89.5848 117.143 95.5781 112.493C99.8632 109.171 103.732 105.463 106.185 100.536C106.966 98.9588 107.528 97.2725 108.236 95.5351C105.243 94.5423 102.849 93.0093 100.695 90.7828V90.8047ZM115.179 62.1814C115.215 62.0427 115.274 61.9113 115.274 61.7872C115.274 58.8453 115.31 55.8961 115.259 52.9542C115.23 51.2679 114.449 50.3408 112.726 49.7568C99.834 45.406 86.9422 41.0625 74.0431 36.7336C73.627 36.5949 73.0868 36.5803 72.6707 36.719C59.7716 41.0406 46.8798 45.3841 33.988 49.7349C32.0754 50.3773 31.3527 51.3847 31.3527 53.3922C31.3527 65.5175 31.3527 77.6428 31.3527 89.7681C31.3527 96.8345 33.5719 103.134 37.9081 108.704C42.0034 113.968 47.128 118.077 52.676 121.64C59.2971 125.888 66.0569 129.918 72.7437 134.072C73.262 134.393 73.5832 134.254 74.0139 133.991C77.0142 132.145 80.0218 130.298 83.0367 128.48C89.3439 124.684 95.673 120.924 101.352 116.201C105.762 112.537 109.609 108.39 112.2 103.207C113.281 101.032 114.127 98.769 114.587 96.2578H110.463C108.981 102.01 105.718 106.719 101.418 110.734C99.5493 112.486 97.6367 114.26 95.4978 115.647C88.4387 120.231 81.2701 124.64 74.1453 129.115C73.4664 129.538 72.8751 129.371 72.2327 128.984C67.9622 126.392 63.6479 123.874 59.3993 121.238C54.1579 117.983 49.1063 114.471 44.646 110.157C38.5067 104.229 35.2144 97.1922 35.3604 88.4906C35.5575 77.3946 35.4042 66.2986 35.4042 55.2026C35.4042 53.6039 35.4845 53.5017 36.9664 52.998C48.6245 49.0633 60.2899 45.1432 71.948 41.1866C72.9116 40.8581 73.7657 40.88 74.722 41.2012C86.1173 45.0629 97.5272 48.8954 108.93 52.7352C110.463 53.2511 111.229 54.3315 111.229 55.9764C111.229 57.7211 111.229 59.4731 111.229 61.2178V62.1887H115.164L115.179 62.1814ZM113.251 93.8342C121.333 93.8269 127.895 87.2642 127.888 79.205C127.881 71.1677 121.245 64.5685 113.215 64.5904C105.192 64.6196 98.6806 71.1531 98.6587 79.1904C98.6368 87.2715 105.185 93.8415 113.259 93.8342H113.251Z" fill="black"/>
<path id="Vector_3" d="M83.6428 83.2711C83.526 88.7169 81.1097 93.0969 77.5327 96.944C73.5907 101.185 68.7873 104.273 63.7868 107.084C62.5312 107.784 61.2537 108.449 59.9835 109.106C59.0199 109.609 58.2826 109.478 57.9249 108.792C57.5599 108.084 57.8519 107.427 58.8301 106.923C63.159 104.697 67.3784 102.295 71.2328 99.3019C74.0579 97.1046 76.6421 94.6664 78.5693 91.6077C80.8177 88.0307 81.6791 84.1836 80.7009 80.0226C79.8103 76.2412 76.2917 74.4454 72.6855 75.9127C71.116 76.5478 69.7874 77.5625 68.9698 79.0298C67.6412 81.4096 66.4294 83.8624 65.2541 86.3298C63.6335 89.7243 62.1954 93.2064 60.4799 96.5425C59.0418 99.3384 57.0416 101.733 54.326 103.441C53.3989 104.025 52.6835 103.981 52.2528 103.324C51.8148 102.653 52.0484 101.974 52.9682 101.39C56.0634 99.4114 57.976 96.4549 59.4871 93.2356C61.2026 89.5856 62.6991 85.8334 64.4073 82.1834C65.2322 80.4241 66.1812 78.694 67.3127 77.1245C69.7947 73.6862 73.8827 72.2116 77.5108 73.2993C80.5768 74.2191 82.3945 76.358 83.0953 79.424C83.3873 80.6869 83.4749 81.9863 83.6501 83.2784L83.6428 83.2711Z" fill="black"/>
<path id="Vector_4" d="M73.6269 67.1089C83.9053 67.3133 90.8768 75.8397 88.9715 85.6801C87.1027 95.3234 81.5766 102.426 73.1743 107.368C72.7947 107.595 72.2399 107.748 71.8384 107.646C71.5026 107.565 71.0062 107.025 71.0427 106.748C71.1084 106.251 71.4077 105.667 71.8019 105.354C73.897 103.711 76.2403 102.346 78.1383 100.514C82.7811 96.0242 85.9492 90.6295 86.7084 84.1033C87.891 73.9417 78.4084 67.6783 70.539 70.1311C66.086 71.5181 63.7281 74.9491 62.5747 79.3072C62.4871 79.6357 62.4944 80.081 62.2754 80.2635C61.925 80.5555 61.3775 80.8913 60.9979 80.811C60.6256 80.7307 60.173 80.1905 60.0927 79.789C59.9905 79.2926 60.173 78.7086 60.3263 78.1903C62.0491 72.5401 65.4655 68.6054 71.4588 67.3425C72.291 67.1673 73.1597 67.1527 73.6415 67.1089H73.6269Z" fill="black"/>
<path id="Vector_5" d="M50.3473 99.7034C49.9604 99.3822 49.4202 99.1559 49.3253 98.7982C49.2085 98.3894 49.3618 97.7835 49.6246 97.4258C49.975 96.9367 50.5444 96.6155 50.997 96.2067C53.6469 93.805 55.0266 90.7682 55.1434 87.235C55.2529 83.8551 55.1142 80.4606 55.1288 77.0734C55.158 71.1166 58.0342 66.9702 63.3121 64.4006C64.2903 63.9261 65.3196 63.5319 66.327 63.1231C67.1008 62.8092 67.8016 62.9552 68.0863 63.7947C68.371 64.6196 67.9184 65.116 67.1446 65.4518C65.7357 66.0577 64.3049 66.649 62.9836 67.4155C59.5453 69.4084 57.7495 72.4817 57.64 76.431C57.5378 80.0518 57.7495 83.6872 57.6035 87.308C57.4064 92.1187 55.3332 96.0461 51.508 99.0099C51.1941 99.2508 50.8218 99.4187 50.3546 99.6961L50.3473 99.7034Z" fill="black"/>
<path id="Vector_6" d="M95.6878 84.3807C95.2717 91.3156 92.5561 97.2359 88.0885 102.412C83.5625 107.653 77.9561 111.449 71.8095 114.515C71.0795 114.88 70.4079 114.88 69.948 114.099C69.5538 113.427 69.8385 112.748 70.7437 112.296C75.204 110.069 79.3869 107.427 83.0661 104.047C88.052 99.4625 91.6655 94.0532 92.87 87.2642C93.0817 86.0889 93.1328 84.8844 93.2204 83.6945C93.308 82.5046 93.7022 81.9644 94.5417 81.9936C95.3739 82.0228 95.717 82.5703 95.6878 83.804C95.6878 84.0084 95.6878 84.2128 95.6878 84.388V84.3807Z" fill="black"/>
<path id="Vector_7" d="M75.6198 78.7742C75.4373 79.1538 75.3132 79.5042 75.1089 79.8035C72.5977 83.4973 70.6632 87.4831 69.0353 91.6368C66.6336 97.7542 62.9397 102.842 57.3041 106.39C57.0194 106.573 56.691 106.879 56.4136 106.843C55.9245 106.784 55.2455 106.631 55.0484 106.288C54.8513 105.952 55.1214 105.317 55.2382 104.828C55.2674 104.704 55.4937 104.616 55.6397 104.521C61.1658 101.156 64.6552 96.1847 66.9401 90.2425C68.5388 86.0888 70.539 82.1176 73.0648 78.4384C73.7072 77.504 74.4737 77.2923 75.1015 77.8909C75.3278 78.1099 75.4373 78.453 75.6198 78.7742Z" fill="black"/>
<path id="Vector_8" d="M95.2352 79.2123C94.8556 79.5773 94.5344 80.0883 94.0818 80.2635C93.4102 80.519 92.8846 80.0956 92.6656 79.4313C92.3517 78.4969 92.1619 77.5114 91.8115 76.5916C89.5558 70.664 85.3437 66.8388 79.2701 65.0284C79.0438 64.9627 78.8029 64.9116 78.5766 64.8386C77.8685 64.5977 77.4524 64.1232 77.6495 63.364C77.8539 62.561 78.4817 62.269 79.2409 62.4953C80.5111 62.8749 81.8105 63.2326 83.015 63.7874C89.4536 66.7366 93.3299 71.7809 94.9943 78.6064C95.0235 78.7378 95.0381 78.8765 95.0527 79.0079C95.1111 79.0736 95.1768 79.1393 95.2352 79.205V79.2123Z" fill="black"/>
<path id="Vector_9" d="M52.3112 83.2128C52.0484 86.7679 51.2527 90.177 49.4058 93.2649C49.1503 93.6883 48.6685 94.0898 48.2086 94.2285C47.9166 94.3161 47.2742 93.973 47.1428 93.6737C46.9749 93.2722 46.9895 92.6371 47.2012 92.2575C48.3619 90.2062 49.1138 88.0235 49.5153 85.7167C49.6978 84.6728 49.7781 83.6143 49.873 82.5558C49.9825 81.3805 50.4278 80.7965 51.2162 80.8476C52.0265 80.8987 52.3915 81.5046 52.3404 82.6945C52.3331 82.8624 52.3258 83.0376 52.3112 83.2055V83.2128Z" fill="black"/>
<path id="Vector_10" d="M78.0509 83.3442C77.5472 86.8774 76.3719 90.1624 74.233 93.0605C73.7731 93.6883 73.1599 93.9584 72.4664 93.462C71.7875 92.9729 71.7729 92.294 72.2328 91.6589C74.0797 89.1112 75.1309 86.2642 75.5908 83.169C75.7076 82.3587 76.1456 81.8039 77.0289 81.928C77.7954 82.0375 78.102 82.585 78.0509 83.3515V83.3442Z" fill="black"/>
<path id="Vector_11" d="M81.022 112.004C81.1461 111.836 81.3286 111.413 81.6498 111.179C83.1974 110.069 84.7815 109.011 86.3583 107.931C86.9715 107.507 87.592 107.485 88.0957 108.077C88.5994 108.668 88.5337 109.354 87.9278 109.785C86.2415 110.997 84.5406 112.186 82.7813 113.281C81.9929 113.778 81.0585 113.157 81.0293 111.997L81.022 112.004Z" fill="black"/>
<path id="Vector_12" d="M63.604 112.478C63.1514 112.077 62.5747 111.807 62.4944 111.434C62.4068 111.004 62.6112 110.23 62.9397 110.047C64.4216 109.201 65.9619 108.449 67.546 107.806C67.8964 107.66 68.6556 107.967 68.9184 108.303C69.1374 108.587 69.0863 109.515 68.8527 109.653C67.1883 110.646 65.4509 111.507 63.6113 112.486L63.604 112.478Z" fill="black"/>
<path id="Vector_13" d="M72.7145 64.3714C72.2692 64.3714 71.7582 64.5101 71.4005 64.3349C70.9406 64.1159 70.3785 63.6852 70.2909 63.2618C70.2252 62.9114 70.7362 62.1303 71.0793 62.0719C72.2108 61.8748 73.3861 61.8383 74.5322 61.9332C74.8461 61.9551 75.3571 62.6632 75.3279 63.0209C75.2914 63.437 74.8388 63.9845 74.43 64.167C73.9336 64.3933 73.2912 64.2911 72.7145 64.3349C72.7145 64.3495 72.7145 64.3568 72.7145 64.3714Z" fill="black"/>
<path id="Vector_14" d="M47.61 82.9572C47.537 83.5631 47.4786 84.1763 47.3837 84.7822C47.2669 85.5049 46.7851 85.8626 46.0843 85.7969C45.3105 85.7312 44.9455 85.2056 44.982 84.4537C45.0185 83.7018 45.1061 82.9572 45.201 82.2126C45.2959 81.4388 45.6974 80.9059 46.5442 80.9935C47.4494 81.0811 47.6976 81.7162 47.6246 82.5411C47.61 82.6798 47.5954 82.8112 47.5881 82.9499C47.5954 82.9499 47.61 82.9499 47.6173 82.9499L47.61 82.9572Z" fill="black"/>
<path id="Vector_15" d="M110.93 78.9641C113.186 76.7084 115.346 74.4746 117.595 72.3357C118.179 71.7809 119.004 71.3429 119.792 71.175C121.113 70.8976 122.405 71.6787 123.019 72.8613C123.639 74.0512 123.559 75.5404 122.617 76.4967C119.332 79.8401 116.047 83.1908 112.66 86.432C111.047 87.9796 108.419 87.5489 107.214 85.6217C105.893 83.5047 104.659 81.3366 103.469 79.1393C102.63 77.5917 103.214 75.7302 104.688 74.8469C106.207 73.9417 108.119 74.3578 109.112 75.8762C109.747 76.8471 110.295 77.8691 110.93 78.9568V78.9641ZM120.916 74.5768C120.916 73.7957 120.31 73.4015 119.763 73.6935C119.5 73.8322 119.288 74.0804 119.077 74.2994C116.631 76.7376 114.2 79.1904 111.747 81.6213C110.842 82.5192 110.083 82.417 109.433 81.3293C108.681 80.0664 107.951 78.7889 107.229 77.5187C106.944 77.015 106.557 76.6646 105.988 76.9931C105.426 77.3143 105.521 77.8253 105.813 78.329C106.908 80.2197 107.988 82.125 109.098 84.0011C109.718 85.045 110.506 85.1618 111.353 84.3223C114.412 81.2928 117.456 78.2414 120.493 75.1827C120.697 74.9783 120.836 74.7009 120.924 74.5768H120.916Z" fill="black"/>
</g>
</g>
</svg>
